<svg id="visual" viewBox="0 0 960 540" width="960" height="540" xmlns="http://www.w3.org/2000/svg" xmlns:xlink="http://www.w3.org/1999/xlink" version="1.1"><rect x="0" y="0" width="960" height="540" fill="#00112200"></rect><defs><linearGradient id="grad1_0" x1="43.8%" y1="100%" x2="100%" y2="0%"><stop offset="14.444444444444446%" stop-color="#00112200" stop-opacity="1"></stop><stop offset="85.55555555555554%" stop-color="#00112200" stop-opacity="1"></stop></linearGradient></defs><defs><linearGradient id="grad2_0" x1="0%" y1="100%" x2="56.3%" y2="0%"><stop offset="14.444444444444446%" stop-color="#00112200" stop-opacity="1"></stop><stop offset="85.55555555555554%" stop-color="#00112200" stop-opacity="1"></stop></linearGradient></defs><g transform="translate(960, 540)"><path d="M-459 0C-389.1 -29.8 -319.2 -59.6 -310.4 -128.6C-301.7 -197.6 -354.1 -305.8 -324.6 -324.6C-295.1 -343.3 -183.7 -272.5 -116 -279.9C-48.2 -287.4 -24.1 -373.2 0 -459L0 0Z" fill="#FBAE3C"></path></g><g transform="translate(0, 0)"><path d="M459 0C417.5 42.9 376 85.8 362.2 150C348.4 214.3 362.3 299.9 324.6 324.6C286.8 349.2 197.4 313 134.7 325.2C72 337.5 36 398.2 0 459L0 0Z" fill="#FBAE3C"></path></g></svg>