<svg id="visual" viewBox="0 0 960 540" width="960" height="540" xmlns="http://www.w3.org/2000/svg" xmlns:xlink="http://www.w3.org/1999/xlink" version="1.1"><rect x="0" y="0" width="960" height="540" fill="#00112200"></rect><defs><linearGradient id="grad1_0" x1="43.8%" y1="100%" x2="100%" y2="0%"><stop offset="14.444444444444446%" stop-color="#00112200" stop-opacity="1"></stop><stop offset="85.55555555555554%" stop-color="#00112200" stop-opacity="1"></stop></linearGradient></defs><defs><linearGradient id="grad2_0" x1="0%" y1="100%" x2="56.3%" y2="0%"><stop offset="14.444444444444446%" stop-color="#00112200" stop-opacity="1"></stop><stop offset="85.55555555555554%" stop-color="#00112200" stop-opacity="1"></stop></linearGradient></defs><g transform="translate(960, 540)"><path d="M-540 0C-535.6 -45.9 -531.2 -91.7 -521.6 -139.8C-512 -187.8 -497.1 -238 -459.9 -265.5C-422.7 -293 -363.1 -297.8 -328.8 -328.8C-294.5 -359.8 -285.4 -416.9 -254.5 -440.8C-223.6 -464.7 -171 -455.5 -125 -466.5C-79 -477.5 -39.5 -508.8 0 -540L0 0Z" fill="#249591"></path></g><g transform="translate(0, 0)"><path d="M540 0C517.9 41.1 495.7 82.2 488.8 131C481.8 179.8 490 236.2 460.7 266C431.5 295.8 364.8 298.8 329.5 329.5C294.2 360.2 290.2 418.7 263.5 456.4C236.8 494.1 187.5 511.1 139.8 521.6C92.1 532.1 46 536 0 540L0 0Z" fill="#249591"></path></g></svg>