<svg width="960" height="540" viewBox="0 0 960 540" fill="none" xmlns="http://www.w3.org/2000/svg">
<g clip-path="url(#clip0_101_5)">
<path d="M479.333 502.538C434.667 463.388 425.067 429.475 434.667 381.375C444.267 333.375 462.9 305.038 500.1 277.538C537.3 250.038 596.9 245.238 631.2 214.238C665.5 183.238 674.6 126.138 705.5 102.238C736.4 78.3375 789 87.5375 835 76.5375C881 65.5375 920.5 34.2375 960 3.03751V528.863C960 528.863 802.667 364.163 717.333 463.388C632 562.613 524 541.688 479.333 502.538Z" fill="#249591"/>
<path d="M737.667 2.70001C714.312 43.5945 486.863 24.6375 516.559 133.045C546.255 241.453 517.827 237.719 486.863 267.37C456.005 297.021 385.517 300.006 348.212 330.553C310.908 361.099 306.68 419.307 278.464 456.818C250.248 494.33 198.148 511.245 147.739 521.692C97.3304 532.14 48.6123 536.02 0 540V2.70001H737.667Z" fill="#249591"/>
</g>
<defs>
<clipPath id="clip0_101_5">
<rect width="960" height="540" fill="white"/>
</clipPath>
</defs>
</svg>
