<svg id="visual" viewBox="0 0 960 540" width="960" height="540" xmlns="http://www.w3.org/2000/svg" xmlns:xlink="http://www.w3.org/1999/xlink" version="1.1"><path d="M0 95L8.5 132.2C17 169.3 34 243.7 50.8 257C67.7 270.3 84.3 222.7 101.2 236C118 249.3 135 323.7 151.8 312.2C168.7 300.7 185.3 203.3 202.2 205.5C219 207.7 236 309.3 252.8 341.2C269.7 373 286.3 335 303.2 335.3C320 335.7 337 374.3 353.8 349.5C370.7 324.7 387.3 236.3 404.2 181C421 125.7 438 103.3 454.8 96.5C471.7 89.7 488.3 98.3 505.2 143.7C522 189 539 271 555.8 283C572.7 295 589.3 237 606.2 249.3C623 261.7 640 344.3 656.8 366.2C673.7 388 690.3 349 707.2 334.8C724 320.7 741 331.3 757.8 345.8C774.7 360.3 791.3 378.7 808.2 390.8C825 403 842 409 858.8 375.8C875.7 342.7 892.3 270.3 909.2 241.7C926 213 943 228 951.5 235.5L960 243L960 541L951.5 541C943 541 926 541 909.2 541C892.3 541 875.7 541 858.8 541C842 541 825 541 808.2 541C791.3 541 774.7 541 757.8 541C741 541 724 541 707.2 541C690.3 541 673.7 541 656.8 541C640 541 623 541 606.2 541C589.3 541 572.7 541 555.8 541C539 541 522 541 505.2 541C488.3 541 471.7 541 454.8 541C438 541 421 541 404.2 541C387.3 541 370.7 541 353.8 541C337 541 320 541 303.2 541C286.3 541 269.7 541 252.8 541C236 541 219 541 202.2 541C185.3 541 168.7 541 151.8 541C135 541 118 541 101.2 541C84.3 541 67.7 541 50.8 541C34 541 17 541 8.5 541L0 541Z" fill="#29C7AC" stroke-linecap="round" stroke-linejoin="miter"></path></svg>